<?xml version="1.0" standalone="no"?>
<!DOCTYPE svg PUBLIC "-//W3C//DTD SVG 20010904//EN"
 "http://www.w3.org/TR/2001/REC-SVG-20010904/DTD/svg10.dtd">
<svg version="1.0" xmlns="http://www.w3.org/2000/svg"
 width="512.000000pt" height="512.000000pt" viewBox="0 0 512.000000 512.000000"
 preserveAspectRatio="xMidYMid meet">

<g transform="translate(0.000000,512.000000) scale(0.100000,-0.100000)"
fill="#1e24e3" stroke="none">
<path d="M2842 5099 c-51 -26 -51 -25 -211 -316 l-123 -223 -145 0 c-83 0
-163 -5 -185 -12 -51 -15 -126 -82 -149 -133 -45 -99 -8 -230 84 -292 61 -41
122 -53 267 -53 l119 0 16 -30 c18 -34 27 -31 -120 -50 -521 -66 -1009 -397
-1289 -872 -296 -504 -325 -1131 -78 -1669 203 -441 597 -794 1059 -948 322
-108 683 -120 1011 -35 113 29 286 95 334 127 59 40 48 125 -18 141 -17 5 -50
-5 -102 -27 -102 -45 -218 -83 -324 -106 l-88 -19 83 90 c154 168 278 350 363
532 21 47 44 85 50 86 27 1 236 -143 339 -233 48 -41 50 -38 -77 -139 -90 -72
-106 -96 -94 -144 8 -32 64 -58 98 -45 39 16 178 134 269 228 188 195 330 430
413 686 195 594 77 1224 -322 1718 -192 239 -512 461 -789 550 l-73 23 0 67 0
67 123 4 c137 5 188 21 245 77 44 45 63 83 69 146 7 63 -9 117 -48 167 -29 36
-29 39 -29 168 0 179 -22 215 -134 227 -96 10 -164 -27 -202 -111 l-23 -51 0
153 c-1 166 -8 199 -55 242 -25 23 -37 25 -124 28 -84 3 -103 0 -140 -19z
m158 -339 l0 -200 -155 0 -156 0 12 23 c28 53 183 334 195 355 12 17 24 22 59
22 l45 0 0 -200z m360 -165 l0 -105 -56 0 c-49 0 -55 2 -50 18 33 90 83 192
93 192 10 0 13 -26 13 -105z m-266 -220 l33 -35 157 0 156 0 0 -29 c0 -20 -9
-37 -31 -55 l-31 -26 -568 0 c-396 0 -576 3 -593 11 -68 31 -63 131 8 160 11
4 204 8 428 8 l408 1 33 -35z m-94 -516 l0 -210 -46 3 -46 3 -67 120 c-37 66
-88 159 -114 208 l-48 87 160 0 161 0 0 -211z m-684 -110 c-86 -91 -159 -184
-177 -222 -24 -53 35 -120 90 -102 11 3 42 32 68 63 102 123 176 202 223 242
l50 42 0 -413 0 -412 -82 7 c-132 10 -402 76 -430 104 -3 4 14 49 38 101 24
52 44 105 44 118 0 30 -42 73 -72 73 -42 0 -70 -31 -114 -127 -25 -51 -47 -93
-49 -93 -32 0 -239 139 -321 215 l-59 55 55 51 c169 154 459 304 705 363 115
27 116 25 31 -65z m994 -38 c58 -26 146 -72 195 -103 86 -54 257 -188 263
-207 9 -28 -364 -295 -380 -271 -2 3 -29 57 -60 120 -31 63 -86 160 -122 214
-56 84 -63 101 -55 123 5 13 9 60 9 104 0 94 -13 93 150 20z m-502 -174 c30
-27 90 -46 145 -47 l47 0 71 -107 c72 -109 169 -291 169 -317 0 -27 -273 -99
-428 -112 l-82 -7 0 349 0 349 29 -45 c15 -25 38 -53 49 -63z m-1357 -283 c43
-48 200 -164 298 -222 53 -31 97 -56 98 -56 0 -1 -14 -53 -32 -116 -41 -141
-74 -331 -82 -467 l-6 -103 -355 0 -355 0 7 73 c30 310 157 629 345 865 23 28
45 52 49 52 5 0 19 -12 33 -26z m2503 -61 c179 -239 287 -524 320 -845 l6 -58
-354 0 -353 0 -7 98 c-12 162 -51 361 -112 569 -5 18 1 25 43 46 80 41 224
140 303 210 41 36 78 66 82 66 4 1 36 -38 72 -86z m-1917 -298 c115 -44 306
-86 461 -101 l72 -7 0 -248 0 -249 -345 0 -346 0 6 63 c13 139 27 237 46 322
20 93 59 235 65 235 2 0 21 -7 41 -15z m1292 -70 c42 -143 80 -371 81 -477 l0
-56 -131 -4 c-123 -3 -132 -4 -150 -27 -26 -32 -24 -77 6 -106 23 -24 30 -25
151 -25 l127 0 -6 -102 c-4 -57 -16 -153 -27 -214 -20 -111 -65 -283 -78 -296
-4 -3 -46 7 -94 23 -109 37 -241 65 -375 80 l-103 12 0 248 0 249 95 0 c88 0
98 2 120 25 30 29 32 74 6 106 -17 22 -28 24 -120 27 l-101 4 0 248 0 248 78
7 c110 9 303 49 402 83 47 17 88 27 92 23 3 -3 15 -37 27 -76z m-1596 -797
c10 -162 67 -453 112 -569 4 -11 -9 -23 -47 -44 -89 -48 -227 -144 -306 -213
l-75 -66 -35 40 c-56 63 -150 212 -197 309 -85 178 -142 380 -161 573 l-7 72
355 0 355 0 6 -102z m837 -147 l0 -249 -67 -6 c-159 -16 -372 -64 -494 -111
-34 -13 -96 265 -124 553 l-6 62 346 0 345 0 0 -249z m1704 192 c-35 -342
-165 -668 -362 -902 l-28 -34 -95 78 c-96 80 -220 165 -297 204 -37 19 -43 26
-38 44 61 208 100 407 112 570 l7 97 353 0 354 0 -6 -57z m-1704 -1014 l0
-411 -39 32 c-146 115 -362 411 -456 623 l-25 58 28 10 c115 45 347 97 445 98
l47 1 0 -411z m390 386 c114 -22 280 -76 280 -92 0 -20 -84 -184 -142 -277
-84 -135 -217 -297 -315 -382 l-53 -45 0 412 0 412 77 -7 c43 -4 112 -14 153
-21z m-1007 -247 c86 -183 217 -374 359 -524 94 -99 93 -100 -77 -54 -242 64
-474 188 -655 349 l-55 49 20 22 c52 58 325 250 356 250 4 0 27 -42 52 -92z"/>
<path d="M3675 4095 c-27 -26 -33 -71 -12 -97 22 -29 144 -98 171 -98 33 0 76
41 76 72 0 35 -22 61 -93 107 -73 47 -108 51 -142 16z"/>
<path d="M4025 3835 c-44 -43 -35 -80 39 -152 55 -53 70 -63 100 -63 70 0 101
76 55 135 -36 44 -119 105 -145 105 -14 0 -36 -11 -49 -25z"/>
<path d="M4315 3505 c-14 -13 -25 -36 -25 -50 0 -29 90 -169 115 -179 50 -19
109 20 107 72 -1 31 -68 143 -101 169 -26 20 -70 15 -96 -12z"/>
<path d="M4536 3129 c-18 -14 -26 -30 -26 -50 0 -41 58 -177 80 -189 32 -17
70 -11 95 15 31 31 31 51 -1 133 -41 106 -90 136 -148 91z"/>
<path d="M4661 2704 c-25 -32 -25 -29 -6 -129 18 -91 38 -118 86 -118 37 0 79
40 79 76 -1 46 -30 161 -46 178 -27 30 -88 25 -113 -7z"/>
<path d="M442 2517 c-46 -14 -121 -84 -143 -132 -22 -49 -25 -151 -5 -199 20
-48 79 -110 124 -130 l39 -18 17 -124 c118 -885 769 -1622 1629 -1843 748
-193 1541 23 2087 569 184 185 308 359 425 595 144 292 224 617 225 912 0 109
-1 112 -26 132 -35 27 -69 27 -98 -2 -21 -21 -24 -36 -30 -153 -44 -772 -469
-1423 -1147 -1758 -281 -139 -570 -206 -891 -206 -547 0 -1047 208 -1438 600
-308 307 -504 693 -575 1130 -23 144 -22 150 31 184 52 33 100 109 110 173 21
144 -100 285 -245 282 -31 -1 -71 -6 -89 -12z m153 -173 c37 -40 30 -107 -14
-141 -20 -15 -76 -17 -102 -3 -29 16 -51 67 -44 101 15 68 113 94 160 43z"/>
</g>
</svg>
