<?xml version="1.0" standalone="no"?>
<!DOCTYPE svg PUBLIC "-//W3C//DTD SVG 20010904//EN"
 "http://www.w3.org/TR/2001/REC-SVG-20010904/DTD/svg10.dtd">
<svg version="1.0" xmlns="http://www.w3.org/2000/svg"
 width="512.000000pt" height="512.000000pt" viewBox="0 0 512.000000 512.000000"
 preserveAspectRatio="xMidYMid meet">

<g transform="translate(0.000000,512.000000) scale(0.100000,-0.100000)"
fill="#46b2e5" stroke="none">
<path d="M1715 5073 c-851 -39 -1538 -651 -1691 -1503 -21 -118 -24 -419 -5
-535 52 -323 157 -577 340 -823 158 -213 407 -422 629 -526 34 -16 62 -32 62
-35 0 -3 -33 -25 -73 -47 -156 -90 -304 -206 -536 -423 -141 -132 -171 -179
-171 -271 0 -67 33 -141 81 -186 54 -50 312 -240 427 -315 250 -163 553 -280
867 -334 221 -38 655 -43 903 -10 390 52 721 184 1054 422 115 82 120 84 218
104 535 107 983 481 1185 988 164 413 148 880 -45 1287 -231 488 -675 822
-1210 910 -47 7 -110 14 -140 15 -98 2 -99 3 -140 114 -179 490 -574 882
-1070 1063 -212 77 -463 116 -685 105z m405 -203 c133 -28 237 -64 367 -125
105 -50 275 -159 353 -225 l35 -30 -345 -345 -345 -346 -38 43 c-60 68 -155
214 -207 318 -89 177 -149 392 -165 585 -3 44 -9 98 -12 119 l-5 39 133 -6
c74 -4 177 -16 229 -27z m-526 -22 c2 -24 10 -92 16 -153 36 -352 181 -698
404 -958 l49 -59 -136 -136 -137 -137 -541 540 -540 540 48 43 c167 151 449
288 703 341 133 27 128 28 134 -21z m1454 -542 c67 -82 143 -198 187 -286 40
-80 98 -221 92 -226 -2 -2 -44 -11 -93 -19 -205 -35 -473 -141 -629 -248 l-50
-34 -85 58 c-47 32 -103 74 -125 93 l-40 35 345 345 c190 190 345 346 346 346
0 0 24 -29 52 -64z m-1915 -484 l537 -537 -134 -134 -135 -134 -68 55 c-293
239 -653 380 -1036 405 -72 4 -100 10 -104 20 -8 21 23 169 58 281 38 120 111
276 174 373 52 81 152 209 163 209 4 0 249 -242 545 -538z m2582 -213 c151
-24 167 -30 182 -67 8 -19 13 -35 11 -37 -2 -1 -94 -66 -206 -144 l-203 -142
-205 143 c-189 132 -204 145 -199 168 10 39 24 47 110 65 163 34 356 39 510
14z m-1471 -102 c28 -24 76 -60 106 -82 30 -21 57 -40 59 -42 2 -1 -32 -40
-76 -86 -43 -45 -106 -118 -138 -160 l-58 -78 -109 108 c-59 59 -108 112 -108
118 0 12 251 265 264 265 5 0 32 -19 60 -43z m656 -36 c0 -35 47 -75 279 -236
l230 -160 1 -171 0 -170 -216 -146 -215 -146 -176 71 -177 72 -82 204 c-83
207 -95 226 -156 252 -16 6 -28 18 -28 26 0 24 219 234 305 293 76 52 211 129
228 130 4 0 7 -9 7 -19z m1263 -7 c78 -40 203 -125 286 -195 l73 -62 -30 -13
c-17 -7 -35 -21 -40 -31 -5 -10 -45 -142 -87 -293 -43 -151 -83 -280 -89 -287
-6 -7 -69 -39 -141 -71 l-129 -60 -211 142 -210 141 -3 166 -2 167 243 170
c134 94 248 177 255 185 7 8 13 26 14 41 3 32 6 32 71 0z m-3673 -183 c129
-23 291 -76 415 -136 94 -45 269 -157 338 -217 l37 -33 -345 -345 -346 -345
-40 45 c-152 173 -293 466 -343 715 -13 65 -35 271 -36 334 0 19 172 9 320
-18z m1433 -249 l128 -129 -26 -59 c-64 -141 -117 -330 -131 -466 -4 -38 -10
-68 -14 -68 -4 0 -15 21 -25 48 -52 140 -176 348 -284 477 l-50 60 132 133
c72 72 134 132 137 132 3 0 63 -58 133 -128z m2791 -69 c105 -163 179 -352
212 -542 18 -102 18 -104 -2 -118 -45 -33 -55 -29 -260 107 -110 73 -202 135
-206 139 -5 5 103 407 127 469 2 7 22 12 45 12 39 0 42 -2 84 -67z m-2415 -67
c18 -10 41 -55 93 -186 l69 -174 -170 -170 -170 -170 -36 17 c-41 19 -41 21
-20 162 28 182 88 369 160 490 28 48 36 52 74 31z m-810 -232 c138 -185 244
-417 290 -642 12 -55 21 -107 21 -115 0 -10 -17 -17 -52 -21 -76 -10 -301 -70
-396 -105 l-83 -31 -94 39 c-151 62 -285 144 -440 269 l-29 23 344 344 c190
190 348 345 352 345 4 0 43 -48 87 -106z m2220 -220 c153 -103 201 -140 197
-152 -3 -9 -33 -115 -67 -234 l-62 -218 -278 0 -278 0 -15 49 c-92 312 -120
423 -106 431 8 5 98 65 200 134 102 69 190 125 196 125 7 1 102 -60 213 -135z
m-713 -442 c45 -155 80 -282 79 -282 -2 0 -49 18 -106 41 -225 89 -494 145
-746 156 l-152 6 -6 49 c-8 57 -5 64 23 49 12 -6 35 -11 53 -11 29 0 55 22
237 204 l205 203 166 -66 166 -67 81 -282z m1603 249 c134 -89 252 -161 264
-161 12 1 33 7 47 15 14 8 27 14 31 15 8 0 -9 -155 -27 -243 -17 -86 -58 -210
-99 -304 l-27 -62 -33 34 -32 35 -294 0 -294 0 -99 99 -99 99 74 261 74 260
125 60 c69 32 130 58 136 56 6 -2 120 -76 253 -164z m-2274 -511 c384 -36 751
-176 1060 -404 125 -92 421 -362 435 -397 22 -53 2 -78 -179 -213 -270 -201
-427 -294 -633 -371 -291 -108 -479 -139 -873 -139 -357 0 -533 24 -779 106
-272 90 -430 178 -758 425 -198 149 -200 158 -71 281 285 272 488 417 741 531
337 152 699 214 1057 181z m1574 -174 l93 -93 -76 -152 -76 -152 -118 107
c-165 150 -324 268 -488 361 l-39 22 305 1 305 0 94 -94z m760 -194 l20 -39
-46 -59 c-100 -128 -255 -262 -409 -353 -71 -42 -234 -115 -240 -108 -2 2 1
18 7 36 14 38 6 119 -14 158 -14 26 -11 34 79 215 l94 188 245 0 245 0 19 -38z"/>
<path d="M1334 1230 c-36 -14 -54 -50 -54 -106 l0 -51 -62 -6 c-51 -5 -67 -10
-85 -32 -30 -34 -29 -75 2 -109 21 -23 32 -26 85 -26 l60 0 0 -50 c0 -55 20
-104 45 -114 35 -13 76 -6 100 19 21 20 25 34 25 85 l0 60 85 0 85 0 0 -50 c0
-55 20 -104 45 -114 31 -12 73 -6 96 13 19 15 25 32 29 83 l5 63 83 3 82 3 0
-45 c0 -83 29 -125 86 -126 54 0 78 29 84 102 l5 63 81 3 81 3 6 -62 c7 -76
33 -109 87 -109 54 0 78 30 82 105 l3 60 85 0 85 0 3 -60 c4 -75 28 -105 82
-105 54 0 80 33 87 109 l6 61 57 0 c46 0 60 4 77 23 29 32 34 52 21 88 -13 37
-57 59 -118 59 -40 0 -40 0 -40 39 0 21 -5 53 -11 71 -21 60 -107 73 -145 22
-8 -9 -14 -43 -14 -74 l0 -58 -90 0 -90 0 0 58 c0 31 -6 65 -14 74 -38 51
-124 38 -145 -22 -6 -18 -11 -50 -11 -71 l0 -39 -85 0 -85 0 0 58 c-1 64 -13
87 -58 103 -63 22 -112 -32 -112 -122 l0 -39 -85 0 -85 0 0 58 c0 50 -4 62
-25 82 -33 31 -87 32 -117 2 -16 -16 -23 -37 -26 -82 l-4 -60 -84 0 -84 0 0
54 c0 43 -5 60 -22 80 -26 29 -63 39 -94 26z"/>
</g>
</svg>
