<?xml version="1.0" standalone="no"?>
<!DOCTYPE svg PUBLIC "-//W3C//DTD SVG 20010904//EN"
 "http://www.w3.org/TR/2001/REC-SVG-20010904/DTD/svg10.dtd">
<svg version="1.0" xmlns="http://www.w3.org/2000/svg"
 width="1000.000000pt" height="1000.000000pt" viewBox="0 0 1000.000000 1000.000000"
 preserveAspectRatio="xMidYMid meet">

<g transform="translate(0.000000,1000.000000) scale(0.100000,-0.100000)"
fill="#000000" stroke="none">
<path d="M6753 8650 c-107 -16 -219 -43 -503 -119 -191 -52 -537 -191 -755
-305 -293 -153 -598 -357 -860 -577 -44 -37 -103 -87 -132 -110 -83 -70 -431
-425 -529 -539 -162 -190 -298 -367 -389 -506 -77 -119 -121 -171 -148 -179
-476 -139 -1077 -379 -1552 -619 -264 -134 -364 -194 -371 -223 -7 -26 2 -72
18 -90 5 -7 42 -19 81 -27 40 -9 209 -45 377 -81 168 -35 384 -82 480 -104 96
-21 227 -49 290 -61 66 -13 120 -28 127 -37 9 -11 6 -34 -12 -101 -101 -382
-122 -1022 -45 -1421 138 -717 543 -1303 1140 -1653 321 -188 721 -314 1140
-359 127 -14 410 -6 530 14 121 21 282 64 372 98 203 79 449 244 586 394 28
30 57 55 66 55 15 0 352 -88 631 -165 72 -20 231 -63 355 -95 124 -33 250 -67
280 -75 61 -17 90 -19 90 -7 0 5 -35 40 -77 78 -43 38 -186 173 -318 299 -132
127 -273 262 -315 300 -41 39 -94 88 -117 110 l-42 40 -11 170 c-6 94 -17 233
-25 310 -7 77 -17 181 -20 230 -11 165 -35 758 -35 865 0 62 -4 99 -9 92 -5
-8 -7 -55 -5 -105 l3 -92 -10 65 c-6 36 -11 71 -11 78 -4 42 -37 -41 -108
-264 -111 -349 -464 -1393 -484 -1433 -21 -39 -90 -74 -193 -97 -96 -22 -307
-29 -399 -14 -328 52 -721 336 -873 630 -70 135 -86 203 -86 380 0 120 5 171
19 225 31 116 80 218 162 341 44 64 86 128 94 140 21 34 48 30 110 -17 231
-173 415 -371 580 -624 124 -190 158 -235 178 -235 23 0 87 66 102 105 6 16
26 118 43 225 31 189 32 205 31 500 0 278 -2 321 -27 490 -33 229 -49 303 -92
430 -19 55 -37 120 -40 144 -8 50 -6 55 120 276 439 772 749 1634 944 2620 65
333 84 471 71 519 -15 56 -44 96 -83 114 -47 23 -183 21 -344 -3z m-1317
-1252 c-12 -81 -19 -395 -9 -401 5 -3 99 83 209 192 264 263 288 271 234 74
-45 -165 -66 -222 -122 -336 -27 -55 -47 -101 -44 -104 6 -6 217 91 269 124
44 28 74 27 69 -2 -6 -35 -173 -302 -229 -365 -29 -34 -53 -65 -53 -71 0 -12
72 -11 130 2 101 22 120 23 120 6 0 -26 -76 -165 -122 -225 -116 -149 -120
-158 -60 -148 120 19 122 19 122 3 0 -14 -37 -73 -149 -231 -47 -68 -52 -91
-18 -83 64 16 107 19 107 7 0 -42 -156 -492 -182 -526 -25 -31 -66 -32 -72 -1
-3 12 -8 76 -11 141 -3 66 -13 171 -21 234 -8 62 -12 123 -8 135 4 12 26 51
50 88 44 65 57 119 30 119 -7 0 -19 -7 -27 -16 -19 -23 -69 -46 -85 -40 -8 3
-14 12 -14 21 0 29 52 139 96 206 41 61 58 119 34 119 -6 0 -66 -28 -135 -62
-144 -71 -160 -70 -125 8 11 27 53 102 92 167 39 64 68 120 65 123 -14 14
-297 -96 -369 -142 -15 -10 -30 -16 -33 -13 -3 3 0 89 6 192 11 183 10 217
-10 217 -6 0 -56 -60 -113 -132 -102 -132 -125 -157 -142 -158 -5 0 -7 68 -3
165 3 90 3 166 -1 169 -18 11 -111 -99 -224 -264 -15 -22 -32 -40 -37 -40 -16
0 -23 53 -16 135 3 44 2 93 -2 108 l-9 29 -49 -64 c-27 -35 -68 -88 -91 -118
-85 -114 -143 -153 -324 -221 -47 -17 -102 -40 -122 -50 -47 -24 -65 -24 -73
0 -12 40 22 87 142 192 66 57 128 116 139 132 27 39 46 30 68 -31 13 -38 23
-52 35 -50 9 2 37 44 62 95 79 158 195 303 242 303 17 0 25 -23 48 -128 6 -30
15 -50 19 -45 5 4 32 54 60 111 27 57 77 139 110 184 33 44 60 84 60 89 0 5 9
9 20 9 26 0 44 -36 70 -141 11 -46 26 -99 32 -118 l11 -34 19 24 c10 13 37 60
60 104 72 140 241 375 271 375 6 0 7 -17 3 -42z"/>
<path d="M3889 8347 c-34 -26 -53 -92 -149 -507 -21 -91 -59 -248 -84 -350
-143 -576 -206 -837 -206 -850 0 -14 13 2 178 225 49 66 158 199 244 295 159
180 456 476 508 507 17 9 30 21 30 25 0 4 -13 22 -28 40 -16 18 -56 78 -89
133 -62 103 -270 433 -298 473 -18 25 -78 30 -106 9z"/>
</g>
</svg>
