<svg xmlns="http://www.w3.org/2000/svg" xmlns:xlink="http://www.w3.org/1999/xlink" version="1.1" id="Calque_1" x="0px" y="0px" viewBox="0 0 124 128" style="enable-background:new 0 0 124 128;" xml:space="preserve">
<path d="M80.1,39c-2.2,0-3.9-1.7-3.9-3.9c0-2.2,1.7-3.9,3.9-3.9c2.1,0,3.9,1.7,3.9,3.9C84,37.3,82.3,39,80.1,39z M63.6,39.1  c-2.1,0-3.9-1.7-3.9-3.9c0-2.2,1.7-3.9,3.9-3.9c2.2,0,3.9,1.7,3.9,3.9C67.5,37.3,65.7,39,63.6,39.1z M47,39.1  c-2.1,0-3.9-1.7-3.9-3.9c0-2.2,1.7-3.9,3.9-3.9c2.1,0,3.9,1.7,3.9,3.9C50.9,37.3,49.2,39.1,47,39.1z M92.1,19.2L35,19.4  c-2.4,0-4.4,2-4.4,4.4l0.1,22.8c0,2.4,2,4.4,4.4,4.4l1.2,0l0,7.4c0,0.6,0.4,1.1,0.9,1.4c0.6,0.2,1.2,0.1,1.6-0.4l7.3-8.4l11.6,0  l4.6,8c0.5,0.9,2,0.9,2.5,0l4.6-8l11.6,0l7.3,8.4c0.3,0.3,0.7,0.5,1.1,0.5c0.2,0,0.3,0,0.5-0.1c0.6-0.2,0.9-0.8,0.9-1.4l0-7.4l1.2,0  c2.4,0,4.4-2,4.4-4.4l-0.1-22.8C96.5,21.2,94.5,19.2,92.1,19.2L92.1,19.2z" fill="#1e24e3"/>
<path d="M40.6,74.3c4.8,0,8.6,3.8,8.7,8.6c0,4.8-3.8,8.6-8.6,8.7c-4.8,0-8.6-3.9-8.6-8.6C32,78.2,35.8,74.3,40.6,74.3z" fill="#1e24e3"/>
<path d="M62,63.2c6.1,0,11.1,5,11.1,11.1c0,6.1-5,11.1-11.1,11.1c-6.1,0-11.1-5-11.1-11.1C50.9,68.2,55.9,63.2,62,63.2z" fill="#1e24e3"/>
<path d="M110.3,107.6c0,0.8-0.6,1.5-1.4,1.5l-93.4,0.2c-0.8,0-1.5-0.6-1.5-1.4c0-0.8,0.6-1.5,1.4-1.5l10.7,0  c0.9-7.2,7.1-12.8,14.5-12.8c1.5,0,3,0.2,4.4,0.7c-0.1,0.1-0.2,0.2-0.3,0.4c-2.7,3.4-4.3,7.4-4.7,11.7l2.9,0  c1.1-9.6,9.1-17.2,19.1-17.2c9.9,0,18,7.4,19.2,17.1l2.9,0c-0.5-4.9-2.7-9.3-5.1-12c1.4-0.5,2.9-0.7,4.4-0.7  c7.4,0,13.6,5.5,14.6,12.7l10.7,0C109.6,106.1,110.2,106.8,110.3,107.6L110.3,107.6z" fill="#1e24e3"/>
<path d="M89.6,76.7c3.4,3.4,3.4,8.8,0,12.2c-3.4,3.4-8.8,3.4-12.2,0c-3.4-3.4-3.4-8.8,0-12.2C80.7,73.4,86.2,73.3,89.6,76.7" fill="#1e24e3"/>
</svg>