<?xml version="1.0" standalone="no"?>
<!DOCTYPE svg PUBLIC "-//W3C//DTD SVG 20010904//EN"
 "http://www.w3.org/TR/2001/REC-SVG-20010904/DTD/svg10.dtd">
<svg version="1.0" xmlns="http://www.w3.org/2000/svg"
 width="200.000000pt" height="200.000000pt" viewBox="0 0 200.000000 200.000000"
 preserveAspectRatio="xMidYMid meet">

<g transform="translate(0.000000,200.000000) scale(0.100000,-0.100000)"
fill="#000000" stroke="none">
<path d="M561 1590 c-78 -33 -124 -102 -124 -185 0 -44 24 -115 39 -115 2 0
-3 14 -12 31 -20 40 -21 126 -1 166 23 44 81 91 122 99 41 7 89 0 128 -21 25
-13 32 -13 57 0 16 8 39 15 52 16 13 0 32 4 43 9 13 6 5 7 -25 3 -25 -3 -57
-12 -71 -19 -23 -12 -32 -11 -60 3 -40 20 -115 26 -148 13z"/>
<path d="M925 1575 c48 -17 101 -74 109 -119 7 -34 -1 -89 -16 -118 -6 -12 -4
-27 5 -45 8 -16 18 -38 21 -50 l7 -23 -125 0 -126 0 0 -90 c0 -89 0 -90 -21
-80 -11 7 -24 9 -27 5 -4 -3 -12 42 -19 102 -6 59 -19 147 -29 196 -16 79 -20
87 -41 87 -28 0 -28 6 -3 -121 11 -57 24 -148 28 -202 l8 -99 -36 -18 c-19
-11 -31 -19 -27 -20 4 0 22 7 39 16 l31 16 -6 -99 c-6 -88 -21 -191 -42 -289
-6 -26 -4 -32 13 -36 23 -6 31 18 54 170 l12 72 33 0 33 0 2 -167 3 -168 130
0 c116 0 130 2 133 18 3 15 -7 17 -107 17 l-111 0 0 150 0 150 105 0 c98 0
105 1 105 20 0 19 -7 20 -105 20 l-105 0 0 69 c0 68 1 70 28 74 l27 4 -27 2
c-28 1 -28 1 -28 76 0 41 3 75 8 76 4 0 46 1 95 2 81 2 87 1 87 -18 0 -34 -46
-91 -92 -114 -24 -11 -37 -21 -30 -21 44 0 112 65 132 125 11 34 13 35 66 35
47 0 54 2 54 20 0 17 -7 20 -53 20 l-53 0 -22 51 c-17 41 -19 56 -10 73 21 38
15 127 -11 169 -23 38 -84 77 -118 77 -10 -1 0 -7 22 -15z m-142 -539 c13 -11
17 -29 17 -90 l0 -76 -30 0 -30 0 0 83 c0 100 6 111 43 83z"/>
<path d="M245 1140 c10 -11 20 -20 23 -20 3 0 -3 9 -13 20 -10 11 -20 20 -23
20 -3 0 3 -9 13 -20z"/>
<path d="M270 1107 c0 -2 15 -16 33 -33 l32 -29 -29 33 c-28 30 -36 37 -36 29z"/>
<path d="M340 1046 c0 -2 8 -10 18 -17 15 -13 16 -12 3 4 -13 16 -21 21 -21
13z"/>
<path d="M380 1015 c0 -7 61 -37 66 -33 2 3 -12 12 -31 21 -19 9 -35 15 -35
12z"/>
<path d="M1425 970 c-10 -11 -16 -22 -14 -25 7 -6 49 24 49 36 0 15 -16 10
-35 -11z"/>
<path d="M468 973 c7 -3 16 -2 19 1 4 3 -2 6 -13 5 -11 0 -14 -3 -6 -6z"/>
<path d="M598 973 c7 -3 16 -2 19 1 4 3 -2 6 -13 5 -11 0 -14 -3 -6 -6z"/>
<path d="M523 963 c9 -2 25 -2 35 0 9 3 1 5 -18 5 -19 0 -27 -2 -17 -5z"/>
<path d="M1070 922 c0 -5 14 -42 31 -83 l30 -74 -27 -23 c-29 -25 -27 -37 4
-28 22 7 37 35 76 138 15 40 21 70 15 73 -9 6 -32 -38 -44 -88 -4 -15 -10 -27
-14 -27 -3 0 -15 26 -27 57 -11 31 -25 58 -32 61 -7 2 -12 -1 -12 -6z"/>
<path d="M1240 910 c-42 -42 -16 -140 36 -140 33 0 64 17 64 35 0 20 -19 19
-26 0 -10 -26 -53 -18 -65 12 -19 51 27 119 55 81 14 -19 36 -24 36 -9 0 14
-41 41 -62 41 -10 0 -27 -9 -38 -20z"/>
<path d="M1395 918 c-29 -16 -35 -28 -35 -74 0 -27 6 -46 18 -57 29 -27 102
-20 102 9 0 17 -12 18 -27 3 -17 -17 -55 -6 -64 19 -8 21 -6 22 46 22 52 0 55
1 55 25 0 27 -35 65 -59 65 -9 0 -25 -6 -36 -12z m51 -16 c6 -4 13 -15 17 -24
5 -15 0 -18 -33 -18 -33 0 -40 3 -40 19 0 26 32 39 56 23z"/>
<path d="M1535 905 c-35 -34 -30 -101 9 -127 19 -13 73 -9 86 7 16 19 5 34
-12 17 -25 -25 -78 -8 -78 25 0 9 17 13 55 13 49 0 55 2 55 20 0 27 -43 70
-70 70 -11 0 -32 -11 -45 -25z m73 -7 c24 -24 13 -38 -28 -38 -26 0 -40 5 -40
13 0 18 21 37 40 37 9 0 21 -5 28 -12z"/>
<path d="M1116 609 c-52 -41 -26 -139 37 -139 41 0 53 9 67 44 14 38 4 82 -23
101 -29 20 -49 19 -81 -6z m74 -18 c14 -26 13 -74 -2 -89 -17 -17 -55 -15 -62
4 -10 26 -7 79 6 92 18 18 46 14 58 -7z"/>
<path d="M1293 620 c-26 -11 -41 -70 -27 -108 13 -37 38 -49 74 -35 32 12 37
5 20 -28 -12 -22 -32 -24 -60 -7 -26 16 -40 0 -16 -18 27 -19 70 -18 89 4 23
26 25 211 3 193 -11 -9 -20 -9 -35 -2 -23 13 -19 12 -48 1z m65 -43 c18 -37 4
-81 -28 -85 -28 -5 -40 12 -40 59 0 62 43 79 68 26z"/>
<path d="M1467 618 c-37 -29 -42 -93 -9 -130 24 -28 102 -22 102 8 0 16 -16
19 -25 4 -11 -17 -54 -11 -65 9 -15 30 -14 31 45 31 51 0 55 2 55 23 0 28 -38
67 -66 67 -11 0 -28 -6 -37 -12z m61 -20 c24 -24 13 -38 -28 -38 -43 0 -49 9
-24 34 19 19 36 20 52 4z"/>
<path d="M1632 620 c-18 -8 -23 -16 -20 -37 2 -23 11 -30 46 -41 30 -10 42
-19 42 -33 0 -14 -7 -19 -29 -19 -17 0 -33 5 -36 10 -9 15 -25 12 -25 -4 0
-28 88 -37 110 -11 21 25 6 49 -43 73 -40 19 -46 26 -37 38 14 16 46 19 55 4
3 -5 14 -10 23 -10 14 0 14 2 2 14 -21 20 -60 27 -88 16z"/>
</g>
</svg>
